<svg xmlns="http://www.w3.org/2000/svg" viewBox="0 0 21.52 18.58"><defs><style>.cls-1{fill:#fff;fill-rule:evenodd;}</style></defs><title>home</title><g id="Layer_2" data-name="Layer 2"><g id="Layer_1-2" data-name="Layer 1"><path class="cls-1" d="M17.9,10.36,12.46,5.92l-1.7-1.38-.23.18L3.64,10.33a.42.42,0,0,0-.18.37q0,3.82,0,7.64v.24H8.08v-8h5.38v8H18a.81.81,0,0,0,0-.09q0-3.92,0-7.85A.42.42,0,0,0,17.9,10.36Z"/><path class="cls-1" d="M10.76,0,0,8.76,1.85,11l8.91-7.26L19.67,11l1.85-2.27Z"/><path class="cls-1" d="M14.94,2.65c1,.81,2,1.65,3.1,2.5V.81H14.53a8.12,8.12,0,0,1,0,.93A.91.91,0,0,0,14.94,2.65Z"/></g></g></svg>